<svg width="128" height="64" fill="none" xmlns="http://www.w3.org/2000/svg"><g clip-path="url(#a)"><path d="M0 0h5.633c4.534 0 7.7 3.167 7.7 7.933C13.333 12.967 10.267 16 5.5 16H0V0Zm5.133 13.867c3.867 0 5.767-2 5.767-5.934C10.9 4.367 9 2.1 5.267 2.1h-3v11.767h2.866ZM16.933 0h11.3v2.1H19.2v4.567h6.7v2.066h-6.7v5.134h9.033v2.1h-11.3V0Zm13.534 0H33l3.267 10.533c.4 1.267.5 2.234.566 3.6h.967c.033-1.2.2-2.266.6-3.566L41.7 0h2.5L39 15.967h-3.367L30.467 0ZM0 21.367h6.5c3.333 0 5.333 2 5.333 4.866 0 2.9-2 4.9-5.366 4.9h-4.2v6.2H0V21.367ZM6.067 29.1c2.2 0 3.366-1.233 3.366-2.9 0-1.667-1.133-2.767-3.366-2.767h-3.8V29.1h3.8Zm8.733-7.733h6.833c3.234 0 5.167 1.866 5.167 4.333 0 1.233-.4 2.133-1.2 2.7-.8.567-1.767.867-2.933.933v.967c2.3.033 3.166.833 3.633 3.033l.767 4.034h-2.5l-.667-3.8c-.333-2.034-1.367-2.8-3.533-2.8h-3.3v6.566H14.8V21.367Zm6.5 7.3c1.9 0 3.1-.9 3.1-2.634 0-1.733-1.2-2.6-3.1-2.6h-4.2v5.234h4.2Zm16.367-7.634c4.533-.067 8.033 3.433 7.966 8.3.067 4.9-3.433 8.367-7.966 8.3-4.534.067-8.1-3.433-8.034-8.3-.066-4.866 3.534-8.366 8.034-8.3Zm0 2.067c-3.467 0-5.567 2.666-5.567 6.233 0 3.634 2.1 6.233 5.567 6.233 3.433 0 5.566-2.6 5.566-6.233 0-3.566-2.133-6.233-5.566-6.233Zm14.766.367H46.8v-2.1h13.767v2.1h-5.834v13.866h-2.266V23.467h-.034ZM69.7 21.033c4.533-.067 8.033 3.433 7.967 8.3.066 4.9-3.434 8.367-7.967 8.3-4.533.067-8.1-3.433-8.033-8.3-.067-4.866 3.5-8.366 8.033-8.3Zm-.033 2.067c-3.467 0-5.567 2.666-5.567 6.233 0 3.634 2.1 6.233 5.567 6.233 3.433 0 5.566-2.6 5.566-6.233 0-3.566-2.133-6.233-5.566-6.233Zm18.5-2.067c3.9 0 6.333 2.334 7 4.734L92.9 26.6c-.3-.933-.833-1.733-1.567-2.433-.733-.7-1.766-1.067-3.166-1.067-3.234 0-5.4 2.3-5.4 6.067 0 3.833 2.166 6.366 5.4 6.366 2.766 0 4.1-1.4 4.833-3.6l2.2.834c-.767 2.733-3.233 4.866-7.033 4.866-4.867.067-7.9-3.733-7.834-8.433-.066-4.6 3.3-8.267 7.834-8.167Zm17.266 0c4.534-.067 8.034 3.433 7.967 8.3.067 4.9-3.433 8.367-7.967 8.3-4.533.067-8.1-3.433-8.033-8.3-.067-4.866 3.533-8.366 8.033-8.3Zm0 2.067c-3.466 0-5.566 2.666-5.566 6.233 0 3.634 2.1 6.233 5.566 6.233 3.434 0 5.567-2.6 5.567-6.233 0-3.566-2.133-6.233-5.567-6.233Zm11.667-1.733h2.267V35.2H128v2.133h-10.9V21.367Z" fill="#fff"/><path d="M5.333 58.666H0V64h5.333v-5.334Z" fill="#00D0FD"/><path d="M10.667 58.666v-5.333H5.333V64h5.334v-5.334Z" fill="#5B8BF5"/><path d="M32 42.666h-5.333v10.667h-16v5.334H32V48h10.667v-5.334H32Z" fill="#FF3815"/><path d="M16 53.333V42.666H5.333v10.667H16Z" fill="#D500E6"/></g><defs><clipPath id="a"><path fill="#fff" d="M0 0h128v64H0z"/></clipPath></defs></svg>
