<?xml version="1.0" encoding="utf-8"?>
<!-- Generator: Adobe Illustrator 23.0.1, SVG Export Plug-In . SVG Version: 6.00 Build 0)  -->
<svg version="1.1" id="Laag_1" xmlns="http://www.w3.org/2000/svg" xmlns:xlink="http://www.w3.org/1999/xlink" x="0px" y="0px"
	 viewBox="0 0 125.7 20.7" style="enable-background:new 0 0 125.7 20.7;" xml:space="preserve">
<style type="text/css">
	.st0{clip-path:url(#SVGID_2_);}
	.st1{fill:#00D0FD;}
	.st2{clip-path:url(#SVGID_4_);}
	.st3{fill:#5B8BF5;}
	.st4{clip-path:url(#SVGID_6_);}
	.st5{fill:#FF3815;}
	.st6{clip-path:url(#SVGID_8_);}
	.st7{fill:#D500E6;}
	.st8{clip-path:url(#SVGID_10_);}
	.st9{fill:#FFFFFF;}
</style>
<g>
	<g>
		<g>
			<defs>
				<rect id="SVGID_1_" y="-19.7" width="128" height="64"/>
			</defs>
			<clipPath id="SVGID_2_">
				<use xlink:href="#SVGID_1_"  style="overflow:visible;"/>
			</clipPath>
			<g class="st0">
				<path class="st1" d="M4.4,14.8H0v4.4h4.4V14.8z"/>
			</g>
		</g>
		<g>
			<defs>
				<rect id="SVGID_3_" y="-19.7" width="128" height="64"/>
			</defs>
			<clipPath id="SVGID_4_">
				<use xlink:href="#SVGID_3_"  style="overflow:visible;"/>
			</clipPath>
			<g class="st2">
				<path class="st3" d="M8.8,14.8v-4.4H4.4v4.4v4.4h4.4V14.8z"/>
			</g>
		</g>
		<g>
			<defs>
				<rect id="SVGID_5_" y="-19.7" width="128" height="64"/>
			</defs>
			<clipPath id="SVGID_6_">
				<use xlink:href="#SVGID_5_"  style="overflow:visible;"/>
			</clipPath>
			<g class="st4">
				<path class="st5" d="M26.4,1.5H22v4.4v4.4h-4.4h-4.4H8.8v4.4h4.4h4.4H22h4.4v-4.3V5.9h4.4h4.4V1.5h-4.4H26.4z"/>
			</g>
		</g>
		<g>
			<defs>
				<rect id="SVGID_7_" y="-19.7" width="128" height="64"/>
			</defs>
			<clipPath id="SVGID_8_">
				<use xlink:href="#SVGID_7_"  style="overflow:visible;"/>
			</clipPath>
			<g class="st6">
				<path class="st7" d="M13.2,10.4V5.9V1.5H8.8H4.4v4.4v4.4h4.4L13.2,10.4L13.2,10.4z"/>
			</g>
		</g>
		<g>
			<defs>
				<rect id="SVGID_9_" y="-19.7" width="128" height="64"/>
			</defs>
			<clipPath id="SVGID_10_">
				<use xlink:href="#SVGID_9_"  style="overflow:visible;"/>
			</clipPath>
			<g class="st8">
				<path class="st9" d="M39,14.8c0,2.5-1.8,4.2-4.5,4.2H31v-8.4h3.6C37.2,10.6,39,12.3,39,14.8z M37.1,14.8c0-1.5-1.1-2.6-2.5-2.6
					H33v5.2h1.7C36.1,17.4,37.1,16.3,37.1,14.8z"/>
				<path class="st9" d="M46.7,10.6v1.6h-4.5V14h4v1.6h-4v1.9h4.6V19h-6.5v-8.4H46.7z"/>
				<path class="st9" d="M49.4,10.6l2.3,6.3l2.3-6.3h2L52.6,19h-2l-3.3-8.4H49.4z"/>
				<path class="st9" d="M67.3,13.4c0,1.8-1.2,2.9-3.3,2.9h-2.2V19h-1v-8.4H64C66.1,10.6,67.3,11.6,67.3,13.4z M66.3,13.4
					c0-1.3-0.9-2-2.4-2h-2.2v4H64C65.5,15.4,66.3,14.7,66.3,13.4z"/>
				<path class="st9" d="M74.4,19l-1.8-2.7c-0.2,0-0.3,0-0.5,0h-2.2V19h-1v-8.4h3.2c2.1,0,3.3,1,3.3,2.8c0,1.4-0.7,2.3-1.9,2.7
					l2,2.9H74.4z M72.1,15.4c1.5,0,2.4-0.7,2.4-2s-0.9-2-2.4-2h-2.2v4H72.1z"/>
				<path class="st9" d="M85.5,14.8c0,2.4-1.9,4.2-4.4,4.2s-4.4-1.9-4.4-4.2c0-2.4,1.9-4.2,4.4-4.2C83.6,10.5,85.5,12.4,85.5,14.8z
					 M77.7,14.8c0,1.9,1.6,3.4,3.4,3.4c1.9,0,3.4-1.5,3.4-3.4s-1.5-3.3-3.4-3.3C79.3,11.4,77.7,12.9,77.7,14.8z"/>
				<path class="st9" d="M92.5,10.6v0.9h-2.7V19h-1v-7.5H86v-0.9H92.5z"/>
				<path class="st9" d="M101.3,14.8c0,2.4-1.9,4.2-4.4,4.2s-4.4-1.9-4.4-4.2c0-2.4,1.9-4.2,4.4-4.2
					C99.4,10.5,101.3,12.4,101.3,14.8z M93.5,14.8c0,1.9,1.6,3.4,3.4,3.4c1.9,0,3.4-1.5,3.4-3.4s-1.5-3.3-3.4-3.3
					C95.1,11.4,93.5,12.9,93.5,14.8z"/>
				<path class="st9" d="M106.5,11.4c-1.9,0-3.4,1.5-3.4,3.3s1.5,3.3,3.4,3.3c0.9,0,1.8-0.4,2.5-1l0.6,0.6c-0.8,0.8-2,1.3-3.1,1.3
					c-2.4,0-4.3-1.9-4.3-4.2c0-2.4,1.9-4.2,4.4-4.2c1.2,0,2.3,0.5,3.1,1.2l-0.6,0.7C108.3,11.8,107.4,11.4,106.5,11.4z"/>
				<path class="st9" d="M119.1,14.8c0,2.4-1.9,4.2-4.4,4.2s-4.4-1.9-4.4-4.2c0-2.4,1.9-4.2,4.4-4.2
					C117.1,10.5,119.1,12.4,119.1,14.8z M111.3,14.8c0,1.9,1.6,3.4,3.4,3.4c1.9,0,3.4-1.5,3.4-3.4s-1.5-3.3-3.4-3.3
					C112.8,11.4,111.3,12.9,111.3,14.8z"/>
				<path class="st9" d="M121.8,10.6v7.5h3.7V19h-4.6v-8.4H121.8z"/>
			</g>
		</g>
		<g>
			<defs>
				<rect id="SVGID_11_" y="-19.7" width="128" height="64"/>
			</defs>
			<clipPath id="SVGID_12_">
				<use xlink:href="#SVGID_11_"  style="overflow:visible;"/>
			</clipPath>
		</g>
		<g>
			<defs>
				<rect id="SVGID_13_" y="-19.7" width="128" height="64"/>
			</defs>
			<clipPath id="SVGID_14_">
				<use xlink:href="#SVGID_13_"  style="overflow:visible;"/>
			</clipPath>
		</g>
		<g>
			<defs>
				<rect id="SVGID_15_" y="-19.7" width="128" height="64"/>
			</defs>
			<clipPath id="SVGID_16_">
				<use xlink:href="#SVGID_15_"  style="overflow:visible;"/>
			</clipPath>
		</g>
	</g>
</g>
</svg>
