<svg xmlns="http://www.w3.org/2000/svg" xmlns:xlink="http://www.w3.org/1999/xlink" viewBox="0 0 125.7 20.7" style="enable-background:new 0 0 125.7 20.7" xml:space="preserve"><defs><path id="a" d="M0-19.7h128v64H0z"/></defs><clipPath id="b"><use xlink:href="#a" style="overflow:visible"/></clipPath><g style="clip-path:url(#b)"><path d="M4.4 14.8H0v4.4h4.4v-4.4z" style="fill:#00d0fd"/></g><defs><path id="c" d="M0-19.7h128v64H0z"/></defs><clipPath id="d"><use xlink:href="#c" style="overflow:visible"/></clipPath><g style="clip-path:url(#d)"><path d="M8.8 14.8v-4.4H4.4v8.8h4.4v-4.4z" style="fill:#5b8bf5"/></g><defs><path id="e" d="M0-19.7h128v64H0z"/></defs><clipPath id="f"><use xlink:href="#e" style="overflow:visible"/></clipPath><g style="clip-path:url(#f)"><path d="M26.4 1.5H22v8.8H8.8v4.4h17.6V5.9h8.8V1.5h-8.8z" style="fill:#ff3815"/></g><defs><path id="g" d="M0-19.7h128v64H0z"/></defs><clipPath id="h"><use xlink:href="#g" style="overflow:visible"/></clipPath><g style="clip-path:url(#h)"><path d="M13.2 10.4V1.5H4.4v8.8h4.4l4.4.1z" style="fill:#d500e6"/></g><defs><path id="i" d="M0-19.7h128v64H0z"/></defs><clipPath id="j"><use xlink:href="#i" style="overflow:visible"/></clipPath><g style="clip-path:url(#j)"><path d="M39 14.8c0 2.5-1.8 4.2-4.5 4.2H31v-8.4h3.6c2.6 0 4.4 1.7 4.4 4.2zm-1.9 0c0-1.5-1.1-2.6-2.5-2.6H33v5.2h1.7c1.4 0 2.4-1.1 2.4-2.6zm9.6-4.2v1.6h-4.5V14h4v1.6h-4v1.9h4.6V19h-6.5v-8.4h6.4zm2.7 0 2.3 6.3 2.3-6.3h2L52.6 19h-2l-3.3-8.4h2.1zm17.9 2.8c0 1.8-1.2 2.9-3.3 2.9h-2.2V19h-1v-8.4H64c2.1 0 3.3 1 3.3 2.8zm-1 0c0-1.3-.9-2-2.4-2h-2.2v4H64c1.5 0 2.3-.7 2.3-2zm8.1 5.6-1.8-2.7h-2.7V19h-1v-8.4h3.2c2.1 0 3.3 1 3.3 2.8 0 1.4-.7 2.3-1.9 2.7l2 2.9h-1.1zm-2.3-3.6c1.5 0 2.4-.7 2.4-2s-.9-2-2.4-2h-2.2v4h2.2zm13.4-.6c0 2.4-1.9 4.2-4.4 4.2s-4.4-1.9-4.4-4.2c0-2.4 1.9-4.2 4.4-4.2 2.5-.1 4.4 1.8 4.4 4.2zm-7.8 0c0 1.9 1.6 3.4 3.4 3.4 1.9 0 3.4-1.5 3.4-3.4s-1.5-3.3-3.4-3.3c-1.8-.1-3.4 1.4-3.4 3.3zm14.8-4.2v.9h-2.7V19h-1v-7.5H86v-.9h6.5zm8.8 4.2c0 2.4-1.9 4.2-4.4 4.2s-4.4-1.9-4.4-4.2c0-2.4 1.9-4.2 4.4-4.2 2.5-.1 4.4 1.8 4.4 4.2zm-7.8 0c0 1.9 1.6 3.4 3.4 3.4 1.9 0 3.4-1.5 3.4-3.4s-1.5-3.3-3.4-3.3c-1.8-.1-3.4 1.4-3.4 3.3zm13-3.4c-1.9 0-3.4 1.5-3.4 3.3s1.5 3.3 3.4 3.3c.9 0 1.8-.4 2.5-1l.6.6c-.8.8-2 1.3-3.1 1.3-2.4 0-4.3-1.9-4.3-4.2 0-2.4 1.9-4.2 4.4-4.2 1.2 0 2.3.5 3.1 1.2l-.6.7c-.8-.6-1.7-1-2.6-1zm12.6 3.4c0 2.4-1.9 4.2-4.4 4.2s-4.4-1.9-4.4-4.2c0-2.4 1.9-4.2 4.4-4.2 2.4-.1 4.4 1.8 4.4 4.2zm-7.8 0c0 1.9 1.6 3.4 3.4 3.4 1.9 0 3.4-1.5 3.4-3.4s-1.5-3.3-3.4-3.3c-1.9-.1-3.4 1.4-3.4 3.3zm10.5-4.2v7.5h3.7v.9h-4.6v-8.4h.9z" style="fill:#fff"/></g></svg>
