<svg version="1.1" id="Laag_1" xmlns="http://www.w3.org/2000/svg" x="0" y="0" viewBox="0 0 125.5 19.1" style="enable-background:new 0 0 125.5 19.1" xml:space="preserve"><style>.st0{clip-path:url(#SVGID_2_)}</style><defs><path id="SVGID_1_" d="M0-20.7h128v64H0z"/></defs><clipPath id="SVGID_2_"/><path d="M4.4 13.8H0v4.4h4.4v-4.4z" style="fill:#00d0fd" class="st0"/><path d="M8.8 13.8V9.4H4.4v8.8h4.4v-4.4z" style="fill:#5b8bf5" class="st0"/><path d="M26.4.5H22v8.8H8.8v4.4h17.6V4.9h8.8V.5h-8.8z" style="fill:#ff3815" class="st0"/><path d="M13.2 9.4V.5H4.4v8.8h8.8z" style="fill:#d500e6" class="st0"/><path d="M39 13.8c0 2.5-1.8 4.2-4.5 4.2H31V9.6h3.6c2.6 0 4.4 1.7 4.4 4.2zm-1.9 0c0-1.5-1.1-2.6-2.5-2.6H33v5.2h1.7c1.4 0 2.4-1.1 2.4-2.6zm9.6-4.2v1.6h-4.5V13h4v1.6h-4v1.9h4.6V18h-6.5V9.6h6.4zm2.7 0 2.3 6.3L54 9.6h2L52.6 18h-2l-3.3-8.4h2.1zm17.9 2.8c0 1.8-1.2 2.9-3.3 2.9h-2.2V18h-1V9.6H64c2.1 0 3.3 1 3.3 2.8zm-1 0c0-1.3-.9-2-2.4-2h-2.2v4H64c1.5 0 2.3-.7 2.3-2zm8.1 5.6-1.8-2.7h-2.7V18h-1V9.6h3.2c2.1 0 3.3 1 3.3 2.8 0 1.4-.7 2.3-1.9 2.7l2 2.9h-1.1zm-2.3-3.6c1.5 0 2.4-.7 2.4-2s-.9-2-2.4-2h-2.2v4h2.2zm13.4-.6c0 2.4-1.9 4.2-4.4 4.2-2.5 0-4.4-1.9-4.4-4.2 0-2.4 1.9-4.2 4.4-4.2 2.5-.1 4.4 1.8 4.4 4.2zm-7.8 0c0 1.9 1.6 3.4 3.4 3.4 1.9 0 3.4-1.5 3.4-3.4s-1.5-3.3-3.4-3.3c-1.8-.1-3.4 1.4-3.4 3.3zm14.8-4.2v.9h-2.7V18h-1v-7.5H86v-.9h6.5zm8.8 4.2c0 2.4-1.9 4.2-4.4 4.2-2.5 0-4.4-1.9-4.4-4.2 0-2.4 1.9-4.2 4.4-4.2 2.5-.1 4.4 1.8 4.4 4.2zm-7.8 0c0 1.9 1.6 3.4 3.4 3.4 1.9 0 3.4-1.5 3.4-3.4s-1.5-3.3-3.4-3.3c-1.8-.1-3.4 1.4-3.4 3.3zm13-3.4c-1.9 0-3.4 1.5-3.4 3.3 0 1.8 1.5 3.3 3.4 3.3.9 0 1.8-.4 2.5-1l.6.6c-.8.8-2 1.3-3.1 1.3-2.4 0-4.3-1.9-4.3-4.2 0-2.4 1.9-4.2 4.4-4.2 1.2 0 2.3.5 3.1 1.2l-.6.7c-.8-.6-1.7-1-2.6-1zm12.6 3.4c0 2.4-1.9 4.2-4.4 4.2-2.5 0-4.4-1.9-4.4-4.2 0-2.4 1.9-4.2 4.4-4.2 2.4-.1 4.4 1.8 4.4 4.2zm-7.8 0c0 1.9 1.6 3.4 3.4 3.4 1.9 0 3.4-1.5 3.4-3.4s-1.5-3.3-3.4-3.3c-1.9-.1-3.4 1.4-3.4 3.3zm10.5-4.2v7.5h3.7v.9h-4.6V9.6h.9z" style="fill:#fff" class="st0"/></svg>
