<svg width="450" height="563" viewBox="0 0 450 563" fill="none" xmlns="http://www.w3.org/2000/svg">
<path d="M361.2 350.3C358.8 350.3 356.4 350.2 353.9 350C332 348.3 307.9 336.8 273.5 317.4C196.9 274.2 105.2 267.6 50.5 301.4C50 301.7 49.4 301.5 49.1 301.1C48.8 300.6 49 300 49.4 299.7C75.4 283.7 111.4 276.1 150.8 278.4C192.6 280.8 235.4 293.7 274.5 315.7C308.6 334.9 332.6 346.4 354.1 348C375.8 349.6 394.9 343.8 407.7 331.7C418.4 321.6 424 307.7 423.7 292.6C423.7 292 424.1 291.6 424.7 291.6C425.2 291.6 425.7 292 425.7 292.6C426.1 308.2 420.2 322.7 409.1 333.2C397.3 344.4 380.5 350.3 361.2 350.3Z" fill="url(#paint0_linear_917_3795)"/>
<path d="M146 128.4C145.8 128.4 145.6 128.3 145.4 128.2C123.7 111.3 113.8 91.9 117.7 73.5C121.3 56.4 136.9 42 157.3 36.9C182.2 30.7 207.3 39.3 224.4 59.9C246.9 86.8 289.1 113.8 328.8 109.5C352.9 106.9 372.4 92.5 385 68.1C385.3 67.6 385.9 67.4 386.3 67.7C386.8 68 387 68.6 386.7 69C373.7 94.1 353.8 108.8 328.9 111.5C288.5 115.9 245.5 88.5 222.7 61.2C206 41.2 181.7 32.8 157.6 38.8C137.9 43.7 122.9 57.5 119.4 73.9C115.7 91.5 125.2 110.2 146.3 126.6C146.7 126.9 146.8 127.6 146.5 128C146.6 128.3 146.3 128.4 146 128.4Z" fill="url(#paint1_linear_917_3795)"/>
<path d="M322 37V475L258 512V73.9L322 37Z" fill="url(#paint2_linear_917_3795)"/>
<path d="M194 37L258 0L322 37L258 73.9L194 37Z" fill="url(#paint3_linear_917_3795)"/>
<path d="M194 37L258 73.9V512L194 475V37Z" fill="url(#paint4_linear_917_3795)"/>
<path d="M258 214C275.673 214 290 199.673 290 182C290 164.327 275.673 150 258 150C240.327 150 226 164.327 226 182C226 199.673 240.327 214 258 214Z" fill="url(#paint5_radial_917_3795)"/>
<path d="M322 145V219L258 255.9V182L322 145Z" fill="url(#paint6_linear_917_3795)"/>
<path d="M194 145L258 108.1L322 145L258 182L194 145Z" fill="url(#paint7_linear_917_3795)"/>
<path d="M194 145L258 182V255.9L194 219V145Z" fill="url(#paint8_linear_917_3795)"/>
<path d="M126 286C143.673 286 158 271.673 158 254C158 236.327 143.673 222 126 222C108.327 222 94 236.327 94 254C94 271.673 108.327 286 126 286Z" fill="url(#paint9_radial_917_3795)"/>
<path d="M130 470C147.673 470 162 455.673 162 438C162 420.327 147.673 406 130 406C112.327 406 98 420.327 98 438C98 455.673 112.327 470 130 470Z" fill="url(#paint10_radial_917_3795)"/>
<path d="M260 88C264.418 88 268 80.8366 268 72C268 63.1634 264.418 56 260 56C255.582 56 252 63.1634 252 72C252 80.8366 255.582 88 260 88Z" fill="url(#paint11_linear_917_3795)"/>
<path d="M256 88C260.418 88 264 80.8366 264 72C264 63.1634 260.418 56 256 56C251.582 56 248 63.1634 248 72C248 80.8366 251.582 88 256 88Z" fill="url(#paint12_linear_917_3795)"/>
<path d="M128 270C132.418 270 136 262.837 136 254C136 245.163 132.418 238 128 238C123.582 238 120 245.163 120 254C120 262.837 123.582 270 128 270Z" fill="url(#paint13_linear_917_3795)"/>
<path d="M124 270C128.418 270 132 262.837 132 254C132 245.163 128.418 238 124 238C119.582 238 116 245.163 116 254C116 262.837 119.582 270 124 270Z" fill="url(#paint14_linear_917_3795)"/>
<path d="M194 219V475L130 511.9V255.9L194 219Z" fill="url(#paint15_linear_917_3795)"/>
<path d="M66 219L130 182L194 219L130 255.9L66 219Z" fill="url(#paint16_linear_917_3795)"/>
<path d="M66 219L130 255.9V511.9L66 475V219Z" fill="url(#paint17_linear_917_3795)"/>
<path d="M386 310V438L322 475V347L386 310Z" fill="url(#paint18_linear_917_3795)"/>
<path d="M258 310L322 273L386 310L322 347L258 310Z" fill="url(#paint19_linear_917_3795)"/>
<path d="M258 310L322 347V475L258 438V310Z" fill="url(#paint20_linear_917_3795)"/>
<path d="M194 401V475L130 511.9V438L194 401Z" fill="url(#paint21_linear_917_3795)"/>
<path d="M66 401L130 364.1L194 401L130 438L66 401Z" fill="url(#paint22_linear_917_3795)"/>
<path d="M66 401L130 438V511.9L66 475V401Z" fill="url(#paint23_linear_917_3795)"/>
<path d="M194 491C198.418 491 202 483.837 202 475C202 466.163 198.418 459 194 459C189.582 459 186 466.163 186 475C186 483.837 189.582 491 194 491Z" fill="url(#paint24_linear_917_3795)"/>
<path d="M198 491C202.418 491 206 483.837 206 475C206 466.163 202.418 459 198 459C193.582 459 190 466.163 190 475C190 483.837 193.582 491 198 491Z" fill="url(#paint25_linear_917_3795)"/>
<path d="M258 438V511.9L194 548.9V475L258 438Z" fill="url(#paint26_linear_917_3795)"/>
<path d="M130 438L194 401L258 438L194 475L130 438Z" fill="url(#paint27_linear_917_3795)"/>
<path d="M130 438L194 475V548.9L130 511.9V438Z" fill="url(#paint28_linear_917_3795)"/>
<path d="M450 411V475L386 511.9V447.9L450 411Z" fill="url(#paint29_linear_917_3795)"/>
<path d="M322 411L386 374L450 411L386 447.9L322 411Z" fill="url(#paint30_linear_917_3795)"/>
<path d="M322 411L386 447.9V511.9L322 475V411Z" fill="url(#paint31_linear_917_3795)"/>
<path d="M424.7 293.6C424.2 293.6 423.7 293.2 423.7 292.6C423.1 265.9 404.4 240 372.4 221.4C340.6 202.9 307 193.5 289.8 189.5C224.5 174.4 181.3 156 145.4 128.1C145 127.8 144.9 127.1 145.2 126.7C145.5 126.3 146.2 126.2 146.6 126.5C182.3 154.2 225.2 172.5 290.2 187.5C307.5 191.5 341.4 201 373.4 219.6C406 238.5 425 265.1 425.7 292.4C425.7 293.1 425.2 293.6 424.7 293.6Z" fill="url(#paint32_linear_917_3795)"/>
<path d="M207.7 562.1C207.3 562.1 206.8 562.1 206.4 562.1C180.8 562 165.1 557.7 165 557.6C164.5 557.5 164.2 556.9 164.3 556.4C164.4 555.9 165 555.6 165.5 555.7C166.1 555.9 227.9 572.4 308.9 539.7C327.8 532.1 365.9 501.2 368.4 464.3C370.1 438.8 354.4 416.3 321.5 397.5C289.9 379.4 256.4 371.8 219 374.3C185.6 376.5 152.3 386.3 120 395.8C97.1999 402.5 73.5999 409.5 50.0999 413.7C29.6999 417.4 11.0999 407 3.79995 387.9C-4.80005 365.5 2.09994 329 49.3999 299.8C49.8999 299.5 50.4999 299.7 50.7999 300.1C51.0999 300.6 50.8999 301.2 50.4999 301.5C4.19994 330 -2.50006 365.5 5.69994 387.2C12.6999 405.6 29.9999 415.2 49.7999 411.7C73.0999 407.5 96.6999 400.6 119.5 393.9C184.3 374.8 251.3 355.1 322.5 395.8C356.1 415 372.2 438.1 370.4 464.4C367.8 502.2 328.9 533.8 309.6 541.5C267.7 558.4 231.3 562.1 207.7 562.1Z" fill="url(#paint33_linear_917_3795)"/>
<path d="M386 406C403.673 406 418 391.673 418 374C418 356.327 403.673 342 386 342C368.327 342 354 356.327 354 374C354 391.673 368.327 406 386 406Z" fill="url(#paint34_radial_917_3795)"/>
<defs>
<linearGradient id="paint0_linear_917_3795" x1="48.9998" y1="314.183" x2="425.671" y2="314.183" gradientUnits="userSpaceOnUse">
<stop stop-color="#BFA330"/>
<stop offset="1" stop-color="#BFA330" stop-opacity="0"/>
</linearGradient>
<linearGradient id="paint1_linear_917_3795" x1="116.881" y1="81.6903" x2="387" y2="81.6903" gradientUnits="userSpaceOnUse">
<stop stop-color="#BFA330"/>
<stop offset="1" stop-color="#BFA330" stop-opacity="0"/>
</linearGradient>
<linearGradient id="paint2_linear_917_3795" x1="155.238" y1="409.238" x2="424.762" y2="139.713" gradientUnits="userSpaceOnUse">
<stop stop-color="#FF3815" stop-opacity="0"/>
<stop offset="1" stop-color="#FF3815"/>
</linearGradient>
<linearGradient id="paint3_linear_917_3795" x1="226" y1="68.9504" x2="290" y2="4.95039" gradientUnits="userSpaceOnUse">
<stop stop-color="#FF3815" stop-opacity="0"/>
<stop offset="1" stop-color="#FF3815"/>
</linearGradient>
<linearGradient id="paint4_linear_917_3795" x1="109.713" y1="390.762" x2="342.287" y2="158.188" gradientUnits="userSpaceOnUse">
<stop stop-color="#FF3815" stop-opacity="0"/>
<stop offset="1" stop-color="#FF3815"/>
</linearGradient>
<radialGradient id="paint5_radial_917_3795" cx="0" cy="0" r="1" gradientUnits="userSpaceOnUse" gradientTransform="translate(258 182) scale(32)">
<stop stop-color="white"/>
<stop offset="1" stop-color="#BFA330" stop-opacity="0"/>
</radialGradient>
<linearGradient id="paint6_linear_917_3795" x1="246.287" y1="244.188" x2="333.713" y2="156.762" gradientUnits="userSpaceOnUse">
<stop stop-color="#FF3815" stop-opacity="0"/>
<stop offset="1" stop-color="#FF3815"/>
</linearGradient>
<linearGradient id="paint7_linear_917_3795" x1="226" y1="177.05" x2="290" y2="113.05" gradientUnits="userSpaceOnUse">
<stop stop-color="#FF3815" stop-opacity="0"/>
<stop offset="1" stop-color="#FF3815"/>
</linearGradient>
<linearGradient id="paint8_linear_917_3795" x1="200.763" y1="225.713" x2="251.238" y2="175.238" gradientUnits="userSpaceOnUse">
<stop stop-color="#FF3815" stop-opacity="0"/>
<stop offset="1" stop-color="#FF3815"/>
</linearGradient>
<radialGradient id="paint9_radial_917_3795" cx="0" cy="0" r="1" gradientUnits="userSpaceOnUse" gradientTransform="translate(126 254) scale(32)">
<stop stop-color="white"/>
<stop offset="1" stop-color="#BFA330" stop-opacity="0"/>
</radialGradient>
<radialGradient id="paint10_radial_917_3795" cx="0" cy="0" r="1" gradientUnits="userSpaceOnUse" gradientTransform="translate(130 438) scale(32)">
<stop stop-color="white"/>
<stop offset="1" stop-color="#BFA330" stop-opacity="0"/>
</radialGradient>
<linearGradient id="paint11_linear_917_3795" x1="260" y1="88" x2="260" y2="56" gradientUnits="userSpaceOnUse">
<stop stop-color="white"/>
<stop offset="1" stop-color="#BFA330" stop-opacity="0"/>
</linearGradient>
<linearGradient id="paint12_linear_917_3795" x1="256" y1="56" x2="256" y2="88" gradientUnits="userSpaceOnUse">
<stop stop-color="white"/>
<stop offset="1" stop-color="#BFA330" stop-opacity="0"/>
</linearGradient>
<linearGradient id="paint13_linear_917_3795" x1="128" y1="270" x2="128" y2="238" gradientUnits="userSpaceOnUse">
<stop stop-color="white"/>
<stop offset="1" stop-color="#BFA330" stop-opacity="0"/>
</linearGradient>
<linearGradient id="paint14_linear_917_3795" x1="124" y1="238" x2="124" y2="270" gradientUnits="userSpaceOnUse">
<stop stop-color="white"/>
<stop offset="1" stop-color="#BFA330" stop-opacity="0"/>
</linearGradient>
<linearGradient id="paint15_linear_917_3795" x1="72.7624" y1="454.663" x2="251.238" y2="276.188" gradientUnits="userSpaceOnUse">
<stop stop-color="#FF3815" stop-opacity="0"/>
<stop offset="1" stop-color="#D500E6"/>
</linearGradient>
<linearGradient id="paint16_linear_917_3795" x1="98.0001" y1="250.95" x2="162" y2="186.95" gradientUnits="userSpaceOnUse">
<stop stop-color="#FF3815" stop-opacity="0"/>
<stop offset="1" stop-color="#D500E6"/>
</linearGradient>
<linearGradient id="paint17_linear_917_3795" x1="27.2377" y1="436.188" x2="168.762" y2="294.663" gradientUnits="userSpaceOnUse">
<stop stop-color="#FF3815" stop-opacity="0"/>
<stop offset="1" stop-color="#D500E6"/>
</linearGradient>
<linearGradient id="paint18_linear_917_3795" x1="296.762" y1="449.713" x2="411.238" y2="335.238" gradientUnits="userSpaceOnUse">
<stop stop-color="#D500E6" stop-opacity="0"/>
<stop offset="1" stop-color="#5B8BF5"/>
</linearGradient>
<linearGradient id="paint19_linear_917_3795" x1="290" y1="342" x2="354" y2="278" gradientUnits="userSpaceOnUse">
<stop stop-color="#D500E6" stop-opacity="0"/>
<stop offset="1" stop-color="#5B8BF5"/>
</linearGradient>
<linearGradient id="paint20_linear_917_3795" x1="251.238" y1="431.238" x2="328.762" y2="353.713" gradientUnits="userSpaceOnUse">
<stop stop-color="#D500E6" stop-opacity="0"/>
<stop offset="1" stop-color="#5B8BF5"/>
</linearGradient>
<linearGradient id="paint21_linear_917_3795" x1="118.287" y1="500.188" x2="205.713" y2="412.762" gradientUnits="userSpaceOnUse">
<stop stop-color="#D500E6" stop-opacity="0"/>
<stop offset="1" stop-color="#D500E6"/>
</linearGradient>
<linearGradient id="paint22_linear_917_3795" x1="98" y1="433.05" x2="162" y2="369.05" gradientUnits="userSpaceOnUse">
<stop stop-color="#D500E6" stop-opacity="0"/>
<stop offset="1" stop-color="#D500E6"/>
</linearGradient>
<linearGradient id="paint23_linear_917_3795" x1="72.7624" y1="481.713" x2="123.238" y2="431.238" gradientUnits="userSpaceOnUse">
<stop stop-color="#D500E6" stop-opacity="0"/>
<stop offset="1" stop-color="#D500E6"/>
</linearGradient>
<linearGradient id="paint24_linear_917_3795" x1="194" y1="490.95" x2="194" y2="458.95" gradientUnits="userSpaceOnUse">
<stop stop-color="white"/>
<stop offset="1" stop-color="#BFA330" stop-opacity="0"/>
</linearGradient>
<linearGradient id="paint25_linear_917_3795" x1="198" y1="458.95" x2="198" y2="490.95" gradientUnits="userSpaceOnUse">
<stop stop-color="white"/>
<stop offset="1" stop-color="#BFA330" stop-opacity="0"/>
</linearGradient>
<linearGradient id="paint26_linear_917_3795" x1="182.287" y1="537.138" x2="269.713" y2="449.713" gradientUnits="userSpaceOnUse">
<stop stop-color="#FF3815" stop-opacity="0"/>
<stop offset="1" stop-color="#FF3815"/>
</linearGradient>
<linearGradient id="paint27_linear_917_3795" x1="162" y1="470" x2="226" y2="406" gradientUnits="userSpaceOnUse">
<stop stop-color="#FF3815" stop-opacity="0"/>
<stop offset="1" stop-color="#FF3815"/>
</linearGradient>
<linearGradient id="paint28_linear_917_3795" x1="136.762" y1="518.663" x2="187.238" y2="468.188" gradientUnits="userSpaceOnUse">
<stop stop-color="#FF3815" stop-opacity="0"/>
<stop offset="1" stop-color="#FF3815"/>
</linearGradient>
<linearGradient id="paint29_linear_917_3795" x1="376.762" y1="502.663" x2="459.238" y2="420.188" gradientUnits="userSpaceOnUse">
<stop stop-color="#5B8BF5" stop-opacity="0"/>
<stop offset="1" stop-color="#00D0FD"/>
</linearGradient>
<linearGradient id="paint30_linear_917_3795" x1="354" y1="442.95" x2="418" y2="378.95" gradientUnits="userSpaceOnUse">
<stop stop-color="#5B8BF5" stop-opacity="0"/>
<stop offset="1" stop-color="#00D0FD"/>
</linearGradient>
<linearGradient id="paint31_linear_917_3795" x1="331.238" y1="484.188" x2="376.762" y2="438.663" gradientUnits="userSpaceOnUse">
<stop stop-color="#5B8BF5" stop-opacity="0"/>
<stop offset="1" stop-color="#00D0FD"/>
</linearGradient>
<linearGradient id="paint32_linear_917_3795" x1="145" y1="210.01" x2="425.654" y2="210.01" gradientUnits="userSpaceOnUse">
<stop stop-color="#BFA330"/>
<stop offset="1" stop-color="#BFA330" stop-opacity="0"/>
</linearGradient>
<linearGradient id="paint33_linear_917_3795" x1="0.728845" y1="430.829" x2="370.486" y2="430.829" gradientUnits="userSpaceOnUse">
<stop stop-color="#BFA330"/>
<stop offset="1" stop-color="#BFA330" stop-opacity="0"/>
</linearGradient>
<radialGradient id="paint34_radial_917_3795" cx="0" cy="0" r="1" gradientUnits="userSpaceOnUse" gradientTransform="translate(386 374) scale(32)">
<stop stop-color="white"/>
<stop offset="1" stop-color="#BFA330" stop-opacity="0"/>
</radialGradient>
</defs>
</svg>
