<?xml version="1.0" encoding="utf-8"?>
<!-- Generator: Adobe Illustrator 25.4.1, SVG Export Plug-In . SVG Version: 6.00 Build 0)  -->
<svg version="1.1" id="logo-sios-v-a-mono" xmlns="http://www.w3.org/2000/svg" xmlns:xlink="http://www.w3.org/1999/xlink" x="0px"
	 y="0px" viewBox="0 0 600 601" style="enable-background:new 0 0 600 601;" xml:space="preserve">
<g>
	<g>
		<g>
			<path d="M326.3,102.3c-1-0.2-2-0.4-3-0.6c-53.1-9.6-89.1,28.5-58.5,61.3c21.4,22.8,32.3,50,28.1,77.3l0,0c-0.2,1.5-0.4,3-0.5,4.5
				c-8.4,91.6,192.9,117.4,206.5,26.5c0.4-2.6,0.7-5.3,0.9-7.9C504.6,191.9,429.4,122,326.3,102.3z"/>
			<path d="M250.3,234.7L250.3,234.7c0.3-1.1,0.5-2.1,0.7-3.2c12-64.3-131.8-98.1-148.6-34.9c-0.1,0.4-0.2,0.7-0.3,1.1
				c-13.6,54.7,41.7,115.5,123.6,135.9c0.4,0.1,0.7,0.2,1.1,0.3c36.1,8.8,61-15.6,41-39.4C252.3,276.1,245.3,254.8,250.3,234.7z"/>
		</g>
		<g>
			<path d="M171.8,500.5c-0.3,0-0.6,0-0.9,0h-0.5H143v-17.8h28.1c7.9,0.1,13.5-1.4,16.7-4.6c2.3-2.3,3.4-5.6,3.4-10.3
				c0-9.4-4-11.6-19.8-15.1c-13.4-3-33.7-7.5-33.7-32.5c0-9.1,6.9-32.7,38.6-32.7H197v17.8h-20.6c-9,0-15.2,2.6-18.4,7.7
				c-2.2,3.5-2.4,7.1-2.4,7.2c0,9.4,4,11.6,19.8,15.1c13.4,3,33.7,7.5,33.7,32.5c0,9.5-2.9,17.2-8.7,22.9
				C193.7,497.2,184.1,500.5,171.8,500.5z"/>
			<path d="M432.1,500.5c-0.3,0-0.6,0-0.9,0h-0.5h-27.4v-17.8h28.1c7.9,0.1,13.5-1.4,16.7-4.6c2.3-2.3,3.4-5.6,3.4-10.3
				c0-9.4-4-11.6-19.8-15.1c-13.4-3-33.7-7.5-33.7-32.5c0-9.1,6.9-32.7,38.6-32.7h20.6v17.8h-20.6c-9,0-15.2,2.6-18.4,7.7
				c-2.2,3.5-2.4,7.1-2.4,7.2c0,9.4,4,11.6,19.8,15.1c13.4,3,33.7,7.5,33.7,32.5c0,9.5-2.9,17.2-8.7,22.9
				C454,497.2,444.4,500.5,432.1,500.5z"/>
			<rect x="229.4" y="390.4" width="17.8" height="107.9"/>
			<path d="M325.5,500.8c-31.5,0-56.1-24.7-56.1-56.2c0-31.8,24.6-56.6,56.1-56.6c31.8,0,56.8,24.8,56.8,56.4
				S357.3,500.8,325.5,500.8z M325.5,405.7c-21.8,0-38.3,16.7-38.3,38.8c0,21.9,16.5,38.4,38.3,38.4s38.9-17,38.9-38.6
				C364.4,422.7,347.3,405.7,325.5,405.7z"/>
		</g>
	</g>
</g>
</svg>
