<svg width="38" height="21" fill="none" xmlns="http://www.w3.org/2000/svg"><g clip-path="url(#a)" fill="#AAA"><path d="M21.198 10.502c0 5.8-4.745 10.501-10.597 10.501C4.75 21.003 0 16.298 0 10.502 0 4.705 4.746 0 10.597 0c5.852 0 10.601 4.702 10.601 10.502Zm11.628 0c0 5.46-2.373 9.885-5.3 9.885-2.928 0-5.301-4.425-5.301-9.885s2.373-9.886 5.3-9.886c2.928 0 5.3 4.426 5.3 9.886Zm4.753 0c0 4.89-.835 8.854-1.865 8.854s-1.866-3.965-1.866-8.854c0-4.89.836-8.855 1.866-8.855 1.033-.003 1.865 3.962 1.865 8.855Z"/></g><defs><clipPath id="a"><path fill="#fff" d="M0 0h37.579v21H0z"/></clipPath></defs></svg>
