<svg
    width="38"
    height="21"
    viewBox="0 0 38 21"
    fill="none"
    xmlns="http://www.w3.org/2000/svg"
    >
    <g clip-path="url(#clip0)">
        <path
        d="M21.1985 10.5018C21.1985 16.3018 16.4525 21.0035 10.601 21.0035C4.74958 21.0035 0 16.2983 0 10.5018C0 4.70525 4.74598 0 10.5974 0C16.4489 0 21.1985 4.7017 21.1985 10.5018Z"
        fill="#AAAAAA"
        />
        <path
        d="M32.8258 10.5017C32.8258 15.9617 30.4528 20.387 27.5252 20.387C24.5977 20.387 22.2247 15.9617 22.2247 10.5017C22.2247 5.0418 24.5977 0.616455 27.5252 0.616455C30.4528 0.616455 32.8258 5.0418 32.8258 10.5017Z"
        fill="#AAAAAA"
        />
        <path
        d="M37.579 10.5017C37.579 15.3912 36.7436 19.3559 35.7137 19.3559C34.6839 19.3559 33.8484 15.3912 33.8484 10.5017C33.8484 5.6122 34.6839 1.64746 35.7137 1.64746C36.7472 1.64392 37.579 5.60866 37.579 10.5017Z"
        fill="#AAAAAA"
        />
    </g>
    <defs>
        <clipPath id="clip0">
        <rect width="37.5789" height="21" fill="white" />
        </clipPath>
    </defs>
</svg>