<?xml version="1.0" encoding="utf-8"?>
<!-- Generator: Adobe Illustrator 25.4.1, SVG Export Plug-In . SVG Version: 6.00 Build 0)  -->
<svg version="1.1" id="logo-sios-v-mono" xmlns="http://www.w3.org/2000/svg" xmlns:xlink="http://www.w3.org/1999/xlink" x="0px"
	 y="0px" viewBox="0 0 600 802" style="enable-background:new 0 0 600 602;" xml:space="preserve">
<g>
	<path d="M339.4,3.7c-1.5-0.3-3-0.6-4.4-0.8c-79.6-14.4-133.7,42.8-87.7,91.9c32.1,34.2,48.4,75,42.2,115.9l0,0
		c-0.3,2.2-0.6,4.5-0.8,6.7C276.1,354.8,578,393.5,598.4,257.1c0.6-3.9,1-7.9,1.3-11.9C606.9,138,494,33.3,339.4,3.7z"/>
	<path d="M225.4,202.2L225.4,202.2c0.4-1.6,0.7-3.2,1-4.7C244.4,101,28.8,50.4,3.5,145.2c-0.1,0.6-0.3,1.1-0.4,1.7
		c-20.5,82,62.6,173.2,185.4,203.8l1.6,0.4c54.1,13.2,91.5-23.4,61.6-59C228.4,264.3,217.9,232.5,225.4,202.2z"/>
	<path d="M107.2,601H64v-27h42.2c11.8,0.1,20.2-2.2,25-6.9c3.5-3.4,5.2-8.5,5.2-15.4c0-14.2-6-17.4-29.6-22.7
		c-20.1-4.5-50.6-11.3-50.6-48.8c0-13.7,10.4-49.2,57.9-49.2h31v27h-31c-13.6,0-22.9,3.9-27.7,11.6c-2,3.3-3.2,7-3.5,10.8
		c0,14.2,6,17.4,29.6,22.7c20.1,4.5,50.6,11.3,50.6,48.8c0,14.3-4.4,25.9-13.1,34.5C140.1,596.1,125.7,601,107.2,601z"/>
	<path d="M498.2,601H455v-27h42.2c11.8,0.1,20.2-2.2,25-6.9c3.5-3.4,5.2-8.5,5.2-15.4c0-14.2-6-17.4-29.6-22.7
		c-20.2-4.5-50.6-11.3-50.6-48.8c0-13.7,10.4-49.2,58-49.2h31v27H505c-13.6,0-22.9,3.9-27.7,11.6c-2,3.3-3.2,7-3.5,10.8
		c0,14.2,6,17.4,29.6,22.7c20.2,4.5,50.6,11.3,50.6,48.8c0,14.3-4.4,25.9-13.1,34.5C531.1,596.1,516.7,601,498.2,601z"/>
	<rect x="194" y="436" width="27" height="162"/>
	<path d="M338.2,601.4c-47.2,0-84.1-37-84.1-84.3c0-47.6,37-85,84.1-85c47.7,0,85.1,37.2,85.1,84.6S386,601.4,338.2,601.4z
		 M338.2,458.9c-32.7,0-57.4,25-57.4,58.2c0,32.8,24.7,57.6,57.4,57.6s58.4-25.4,58.4-57.9S371,458.9,338.2,458.9z"/>
</g>
</svg>
