<svg width="248" height="40" fill="none" xmlns="http://www.w3.org/2000/svg"><g filter="url(#a)"><path fill-rule="evenodd" clip-rule="evenodd" d="M18.627 10.41a9.146 9.146 0 0 0-1.45-.333c-2.298-.327-4.112.407-5.366 1.765-2.14 2.32-2.333 6.035-.818 9.532 1.583-3.264 3.742-6.827 6.621-9.92.336-.361.674-.71 1.013-1.044Zm5.376-4.149c-1.997-1.135-4.006-1.843-5.98-2.124-4.184-.596-7.984.779-10.621 3.637-5.21 5.646-3.72 13.759-.304 18.965.348.53.725 1.032 1.128 1.508a53.36 53.36 0 0 0-.611 1.996 42.64 42.64 0 0 0-.509 1.96l-.027.121-.008.036-.002.012-.001.006s0 .002 2.935.621l-2.936-.62a3 3 0 0 0 5.87 1.241l.003-.012.017-.076c.017-.072.043-.184.08-.334.054-.225.133-.534.237-.915 3.363 1.823 7.208 2.662 10.598 2.662.044 0 .087 0 .13-.003l.13.003c3.391 0 7.236-.839 10.598-2.662a34.654 34.654 0 0 1 .318 1.249l.017.076.002.011v.001a3 3 0 0 0 5.87-1.24l-2.935.62c2.935-.62 2.935-.622 2.935-.622l-.001-.006-.003-.012-.007-.036-.028-.121a42.664 42.664 0 0 0-.508-1.96 53.153 53.153 0 0 0-.611-1.996c.403-.476.78-.978 1.128-1.508 3.416-5.206 4.907-13.319-.304-18.965-2.637-2.858-6.437-4.233-10.62-3.637-1.975.28-3.984.989-5.98 2.124Zm0 7.344a26.027 26.027 0 0 0-1.997 1.936c-3.081 3.31-5.269 7.414-6.736 10.95 2.462 1.59 5.615 2.454 8.602 2.454.044 0 .087.001.13.003l.13-.003c2.988 0 6.14-.864 8.603-2.454-1.467-3.536-3.655-7.64-6.736-10.95a26.045 26.045 0 0 0-1.996-1.936Zm13.009 7.77c-1.583-3.265-3.742-6.828-6.621-9.921a33.84 33.84 0 0 0-1.013-1.044c.508-.16.992-.268 1.45-.333 2.298-.327 4.112.407 5.366 1.765 2.14 2.32 2.333 6.035.818 9.532Z" fill="#FF3815"/></g><path d="M56.088 25.472c.672 2.816 3.744 4.576 7.52 4.576 4.64 0 7.424-2.048 7.424-5.28 0-2.624-1.824-4.288-5.504-4.992l-2.208-.416c-1.76-.352-2.208-.704-2.208-1.568 0-.896.768-1.536 2.272-1.536 1.568 0 2.72.864 3.232 2.24L70.36 16.8c-.768-1.792-2.912-3.68-6.752-3.68-4.256 0-6.88 1.984-6.88 5.056s1.824 4.256 5.312 4.928l2.272.448c1.504.288 1.984.832 1.984 1.696 0 .928-.896 1.6-2.432 1.6-1.344 0-2.24-.288-2.72-.896-.48-.608-.8-1.216-.928-1.792l-4.128 1.312ZM71.954 13.6v3.456h3.36v8.352c0 2.528 1.504 4.192 4.064 4.192h5.344v-3.616h-3.456c-.928 0-1.408-.48-1.408-1.408v-7.52h4.16V13.6h-4.16V8.576h-4.544V13.6h-3.36Zm22.13-.48c-4.513 0-7.329 2.336-7.585 4.896l4.097.896c.383-1.568 1.471-2.528 3.52-2.528 1.791 0 2.624.8 2.624 2.208v.608c-5.856.608-9.953 1.952-10.048 6.304 0 2.72 2.176 4.608 5.12 4.608 2.591 0 4.16-1.536 4.895-3.84h1.505c.096 2.432.64 3.328 3.488 3.328h1.888v-3.456h-1.408c-.864 0-.96-.096-.96-.96v-5.856c0-4.128-2.528-6.208-7.136-6.208Zm-2.785 11.936c0-2.048 2.24-2.624 5.44-3.04v1.024c0 2.528-1.535 3.744-3.36 3.744-1.376 0-2.08-.672-2.08-1.728Zm19.24 4.544v-4.384l2.336-2.272 4.992 6.656h5.728l-7.584-9.664 6.528-6.336h-5.568l-7.52 7.552-1.216-1.312c1.536-1.28 2.304-2.432 2.304-5.568V7.2h-4.544v22.4h4.544Z" fill="#0A0A0A"/><path d="M122.907 21.568c0 5.216 3.232 8.544 8.128 8.544 3.552 0 6.272-1.344 7.776-4.672l-4.064-1.568c-.768 1.792-1.792 2.784-3.712 2.784-2.048 0-3.456-1.28-3.584-3.968h11.296c.032-.352.032-.736.032-1.088 0-4.896-2.88-8.48-7.776-8.48-4.608 0-8.096 3.488-8.096 8.448Zm4.704-2.08c.288-2.048 1.568-3.104 3.392-3.104 1.952 0 3.04 1.024 3.264 3.104h-6.656Zm13.258 5.984c.672 2.816 3.744 4.576 7.52 4.576 4.64 0 7.424-2.048 7.424-5.28 0-2.624-1.824-4.288-5.504-4.992l-2.208-.416c-1.76-.352-2.208-.704-2.208-1.568 0-.896.768-1.536 2.272-1.536 1.568 0 2.72.864 3.232 2.24l3.744-1.696c-.768-1.792-2.912-3.68-6.752-3.68-4.256 0-6.88 1.984-6.88 5.056s1.824 4.256 5.312 4.928l2.272.448c1.504.288 1.984.832 1.984 1.696 0 .928-.896 1.6-2.432 1.6-1.344 0-2.24-.288-2.72-.896-.48-.608-.8-1.216-.928-1.792l-4.128 1.312Zm18.093 4.128h4.096v-4.16h-4.096v4.16Zm7.351-4.096c.672 2.912 3.552 4.544 6.976 4.544 4.096 0 6.496-1.856 6.496-4.928 0-1.536-.544-2.656-1.664-3.392a9.982 9.982 0 0 0-3.712-1.504l-1.888-.384c-2.176-.48-2.688-.928-2.688-2.048s1.024-2.144 3.072-2.144c2.208 0 3.328 1.248 3.84 2.688l2.656-1.024c-.736-2.304-2.848-4.032-6.464-4.032-3.328 0-5.984 1.984-5.984 4.832 0 2.912 2.048 3.968 4.992 4.576l1.92.352c2.08.416 2.848 1.184 2.848 2.336 0 1.408-1.184 2.208-3.392 2.208-2.432 0-3.68-1.216-4.16-3.008l-2.848.928Zm16.162-3.84c0 4.768 3.296 8.384 7.552 8.384s7.52-3.616 7.52-8.384c0-4.768-3.168-8.384-7.52-8.384-4.32 0-7.552 3.616-7.552 8.384Zm11.968.064c0 3.744-1.728 5.728-4.416 5.728-2.72 0-4.416-1.984-4.416-5.728 0-3.872 1.728-5.856 4.416-5.856 2.656 0 4.416 1.984 4.416 5.856Zm5.908-.096c0 5.152 3.104 8.416 7.712 8.416 3.456 0 5.92-1.952 7.04-5.024l-2.848-.992c-.64 2.048-1.92 3.424-4.224 3.424-2.656 0-4.544-1.952-4.544-5.824 0-3.744 2.016-5.76 4.512-5.76 2.048 0 3.296 1.184 3.904 2.976l2.816-.96c-.864-2.592-3.136-4.608-6.688-4.608-4.448 0-7.68 3.488-7.68 8.352Zm18.119-10.848h3.2V7.2h-3.2v3.584Zm.128 18.816h3.008V13.728h-3.008V29.6Zm13.851-16.32c-4.032 0-6.368 2.144-6.976 4.448l2.816.96c.608-1.92 2.016-2.88 4.16-2.88 2.304 0 3.328 1.024 3.328 2.944v.48c-3.008.224-5.408.832-7.232 1.824-1.824.96-2.752 2.432-2.752 4.448 0 2.816 1.952 4.544 5.056 4.544 2.688 0 4.32-1.568 4.928-3.776h1.216c0 2.528.64 3.328 3.04 3.328h1.312v-2.592h-1.632c-.736 0-.928-.16-.928-.896v-7.264c0-3.488-2.112-5.568-6.336-5.568Zm-3.552 11.968c0-2.304 2.624-3.424 6.88-3.84v1.632c0 3.04-1.92 4.544-4.064 4.544-1.92 0-2.816-.896-2.816-2.336Zm15.295 4.352h3.008V7.2h-3.008v22.4Z" fill="#0A0A0A"/><defs><filter id="a" x="0" y="0" width="48.005" height="40" filterUnits="userSpaceOnUse" color-interpolation-filters="sRGB"><feFlood flood-opacity="0" result="BackgroundImageFix"/><feColorMatrix in="SourceAlpha" values="0 0 0 0 0 0 0 0 0 0 0 0 0 0 0 0 0 0 127 0"/><feOffset/><feGaussianBlur stdDeviation="2"/><feColorMatrix values="0 0 0 0 1 0 0 0 0 0.219608 0 0 0 0 0.0823529 0 0 0 0.5 0"/><feBlend in2="BackgroundImageFix" result="effect1_dropShadow"/><feBlend in="SourceGraphic" in2="effect1_dropShadow" result="shape"/></filter></defs></svg>
