<svg width="26" height="21" fill="none" xmlns="http://www.w3.org/2000/svg" class="mr-2"><path d="M23.269 5.28c.016.223.016.447.016.672 0 6.87-5.326 14.792-15.065 14.792v-.005a15.19 15.19 0 0 1-8.115-2.33 10.757 10.757 0 0 0 7.836-2.155c-2.266-.042-4.253-1.492-4.947-3.61.794.15 1.612.12 2.39-.09-2.47-.49-4.247-2.62-4.247-5.095v-.066a5.32 5.32 0 0 0 2.403.65C1.214 6.518.497 3.479 1.902 1.104 4.59 4.35 8.556 6.324 12.813 6.532a5.142 5.142 0 0 1 1.532-4.966c2.132-1.969 5.486-1.868 7.49.225A10.744 10.744 0 0 0 25.199.53a5.236 5.236 0 0 1-2.327 2.875 10.682 10.682 0 0 0 3.04-.818A10.65 10.65 0 0 1 23.27 5.28Z" fill="#AAA"/></svg>
